<svg viewBox="0 0 150 150" version="1.1" xmlns="http://www.w3.org/2000/svg" xmlns:xlink="http://www.w3.org/1999/xlink">
    <g id="Page-1" stroke="none" stroke-width="1" fill="none" fill-rule="evenodd">
        <g id="Group-15">
            <rect id="Rectangle" fill="#D8D8D8" x="0" y="0" width="150" height="150" opacity="0"></rect>
            <g id="finding-help__customer-gateway" transform="translate(15.000000, 32.000000)" fill-rule="nonzero" fill="#43AE5A">
                <g id="Asset-1">
                    <g id="Layer_2">
                        <g id="Layer_2-2">
                            <g id="Group">
                                <path d="M43.2774194,83.4193548 L114,83.4193548 C114.758715,83.5203903 115.52153,83.2650518 116.06653,82.7276213 C116.61153,82.1901908 116.877511,81.4310215 116.787097,80.6709677 L116.787097,77.6516129 L3.87096774,77.6516129 L3.87096774,80.6709677 C3.77787369,81.4387299 4.04866242,82.2059204 4.60307051,82.7451392 C5.15747861,83.2843581 5.9318936,83.5337356 6.69677419,83.4193548 L43.2774194,83.4193548 Z M52.1806452,78.5806452 L70.4516129,78.5806452 L70.4516129,81.6 L52.2193548,81.6 L52.1806452,78.5806452 Z" id="Shape"></path>
                                <polygon id="Shape" points="105.832258 71.2258065 60.4258065 71.2258065 60.2709677 71.2258065 14.8645161 71.2258065 6.58064516 76.0645161 114.116129 76.0645161"></polygon>
                                <path d="M19.6645161,69.6774194 L100.954839,69.6774194 C103.669942,69.6774194 105.870968,67.4763934 105.870968,64.7612903 L105.870968,4.91612903 C105.871131,3.59876526 105.342569,2.33645128 104.403804,1.41224009 C103.465038,0.488028908 102.19462,-0.0207458965 100.877419,0 L19.5870968,0 C16.9022757,0.0422858707 14.7480541,2.23097495 14.7483871,4.91612903 L14.7483871,64.8 C14.7696474,67.4999739 16.9644585,69.6775031 19.6645161,69.6774194 L19.6645161,69.6774194 Z M61.0451613,68.7870968 C59.7838142,68.7870968 58.7612903,67.7645729 58.7612903,66.5032258 C58.7612903,65.2418787 59.7838142,64.2193548 61.0451613,64.2193548 C62.3065084,64.2193548 63.3290323,65.2418787 63.3290323,66.5032258 C63.3394134,67.115625 63.1033827,67.7065308 62.6739434,68.1432487 C62.2445042,68.5799665 61.6576485,68.8258944 61.0451613,68.8258065 L61.0451613,68.7870968 Z M18,6.69677419 C18.0304008,5.51599944 18.5288236,4.39571245 19.3855307,3.58256667 C20.2422379,2.76942089 21.3869881,2.330086 22.5677419,2.36129032 L97.8193548,2.36129032 C99.0001086,2.330086 100.144859,2.76942089 101.001566,3.58256667 C101.858273,4.39571245 102.356696,5.51599944 102.387097,6.69677419 L102.387097,59.1096774 C102.356696,60.2904522 101.858273,61.4107392 101.001566,62.2238849 C100.144859,63.0370307 99.0001086,63.4763656 97.8193548,63.4451613 L22.5677419,63.4451613 C21.3869881,63.4763656 20.2422379,63.0370307 19.3855307,62.2238849 C18.5288236,61.4107392 18.0304008,60.2904522 18,59.1096774 L18,6.69677419 Z" id="Shape"></path>
                                <path d="M87.2903226,37.4322581 L76.6064516,33.0580645 L72.4645161,31.3548387 L61.7419355,27.0967742 C60.6193548,26.6322581 60.0387097,27.0967742 60.5032258,28.3354839 L64.8774194,39.0580645 L66.5806452,43.2 L70.9548387,53.9225806 C71.4193548,55.0451613 72.6580645,55.1225806 73.7032258,53.9225806 L78.4258065,49.2 L86.5548387,57.3290323 C86.9931797,57.7671127 87.7035945,57.7671127 88.1419355,57.3290323 L91.0064516,54.4645161 C91.4445321,54.0261752 91.4445321,53.3157603 91.0064516,52.8774194 L82.8774194,44.7483871 L87.6,40.0258065 C88.5290323,39.1354839 88.4516129,37.8580645 87.2903226,37.4322581 Z" id="Shape"></path>
                                <path d="M58.0645161,29.2645161 C57.4434356,28.0256448 57.5320181,26.5492695 58.2967742,25.3935484 C58.9449604,24.4543834 60.0203437,23.9021596 61.1612903,23.9225806 C61.7744568,23.9337968 62.3794524,24.0653176 62.9419355,24.3096774 L75.8322581,29.5741935 C75.4844099,25.464451 73.2246271,21.7573675 69.7309653,19.565266 C66.2373035,17.3731644 61.9163109,16.9511341 58.0645161,18.4258065 C56.3518588,13.1909294 51.2954054,9.79411765 45.8015803,10.1878418 C40.3077552,10.5815659 35.7873658,14.6647181 34.8387097,20.0903226 C28.4696637,20.8148042 23.7760933,26.388794 24.1464771,32.7882031 C24.5168609,39.1876121 29.8221574,44.1828894 36.2322581,44.1677419 L44.7096774,44.1677419 L55.2774194,44.1677419 L62.7096774,44.1677419 L63.9870968,44.1677419 L58.0645161,29.2645161 Z" id="Shape"></path>
                                <path d="M87.2903226,37.4322581 L76.6064516,33.0580645 L72.4645161,31.3548387 L61.7419355,27.0967742 C60.6193548,26.6322581 60.0387097,27.0967742 60.5032258,28.3354839 L64.8774194,39.0580645 L66.5806452,43.2 L70.9548387,53.9225806 C71.4193548,55.0451613 72.6580645,55.1225806 73.7032258,53.9225806 L78.4258065,49.2 L86.5548387,57.3290323 C86.9931797,57.7671127 87.7035945,57.7671127 88.1419355,57.3290323 L91.0064516,54.4645161 C91.4445321,54.0261752 91.4445321,53.3157603 91.0064516,52.8774194 L82.8774194,44.7483871 L87.6,40.0258065 C88.5290323,39.1354839 88.4516129,37.8580645 87.2903226,37.4322581 Z" id="Shape"></path>
                            </g>
                        </g>
                    </g>
                </g>
            </g>
        </g>
    </g>
</svg>