<svg viewBox="0 0 150 150" version="1.1" xmlns="http://www.w3.org/2000/svg" xmlns:xlink="http://www.w3.org/1999/xlink">
    <g id="Page-1" stroke="none" stroke-width="1" fill="none" fill-rule="evenodd">
        <g id="Group-14">
            <rect id="Rectangle" fill="#D8D8D8" x="0" y="0" width="150" height="150" opacity="0"></rect>
            <g id="finding-help__live-chat" transform="translate(15.000000, 24.000000)" fill-rule="nonzero" fill="#43AE5A">
                <g id="Asset-1">
                    <g id="Layer_2">
                        <g id="Layer_2-2">
                            <g id="Group">
                                <g id="Shape">
                                    <path d="M79.8857143,95.3142857 C79.7847271,91.5611794 79.1645524,87.8401312 78.0428571,84.2571429 C77.0424233,81.1294441 74.678454,78.6236366 71.6142857,77.4428571 C68.347779,76.1243592 64.9392494,75.1895304 61.4571429,74.6571429 C58.9008394,74.3223456 56.3869491,73.719012 53.9571429,72.8571429 L53.3571429,72.5571429 L52.5428571,71.7857143 C51.4285714,70.1571429 50.1428571,68.5714286 50.1428571,68.5714286 L50.1428571,68.5714286 C48.2481232,69.9947403 46.1147165,71.0687001 43.8428571,71.7428571 L43.8428571,71.7428571 L40.2,73.2428571 L35.9142857,71.6571429 L35.9142857,71.6571429 C33.6927258,70.9968691 31.604012,69.9525123 29.7428571,68.5714286 L29.7428571,68.5714286 L27.3428571,71.8714286 L26.5285714,72.6428571 L26.1,72.8571429 C23.661239,73.7657284 21.1327183,74.4122252 18.5571429,74.7857143 C15.1384953,75.2894857 11.7883388,76.1809436 8.57142857,77.4428571 C5.50726032,78.6236366 3.143291,81.1294441 2.14285714,84.2571429 C0.919228192,87.8256406 0.198029031,91.5470283 0,95.3142857 L0,97.0714286 C1.45714286,97.3285714 6.04285714,98.1857143 12.2142857,99 C19.9891705,100.062562 27.8139961,100.720591 35.6571429,100.971429 L44.2285714,100.971429 C52.8,100.714286 61.3714286,99.8142857 67.2428571,99.0428571 C73.1142857,98.2714286 78.4285714,97.3714286 80.1,97.1142857 L79.8857143,95.3142857 Z"></path>
                                    <path d="M65.1857143,0 L65.1857143,35.0142857 L74.3142857,35.0142857 L74.3142857,43.1571429 L82.0285714,35.0142857 L120,35.0142857 L120,0 L65.1857143,0 Z M92.6142857,3.08571429 C93.4241102,3.07779313 94.2313288,3.17869545 95.0142857,3.38571429 C98.4857143,4.32857143 99.0428571,7.67142857 99.0428571,11.4 C99.0293218,13.2588545 98.4459419,15.068828 97.3714286,16.5857143 C96.520004,17.8617551 95.3130587,18.8600926 93.9,19.4571429 C93.4902419,19.6190121 93.0547813,19.7061042 92.6142857,19.7142857 C92.1137057,19.709791 91.6187873,19.607896 91.1571429,19.4142857 L91.1571429,19.4142857 C88.1042777,17.9064521 86.1637132,14.8048661 86.1428571,11.4 C86.1428571,6.81428571 87,3.08571429 92.5714286,3.08571429 L92.6142857,3.08571429 Z M101.185714,29.4428571 C99.3,29.7 96.6,29.9571429 93.8571429,30.0428571 L91.0714286,30.0428571 C88.5762637,29.9577744 86.0871991,29.7431998 83.6142857,29.4 C81.6428571,29.1428571 80.1857143,28.8857143 79.7142857,28.8 L79.7142857,28.2857143 C79.7501154,27.0921064 79.9520563,25.9093096 80.3142857,24.7714286 C80.6277166,23.7654638 81.386288,22.9594817 82.3714286,22.5857143 C83.4475783,22.1678159 84.5698258,21.8800601 85.7142857,21.7285714 C86.5333031,21.6142653 87.3378323,21.413133 88.1142857,21.1285714 L88.1142857,21.1285714 L88.3714286,20.8714286 L89.1428571,19.8428571 L89.1428571,19.8428571 C89.7338169,20.2998908 90.4013554,20.6481718 91.1142857,20.8714286 L91.1142857,20.8714286 L92.4428571,21.3857143 L93.6,20.9142857 L93.6,20.9142857 C94.3246442,20.7079572 95.0067311,20.37417 95.6142857,19.9285714 L95.6142857,19.9285714 L96.3857143,20.9142857 L96.6428571,21.1714286 L96.6428571,21.1714286 C97.4193106,21.4559902 98.2238398,21.6571225 99.0428571,21.7714286 C100.145386,21.9465706 101.223973,22.248575 102.257143,22.6714286 C103.242283,23.045196 104.000855,23.8511781 104.314286,24.8571429 C104.676515,25.9950239 104.878456,27.1778207 104.914286,28.3714286 L104.914286,28.9285714 C104.828571,28.9285714 103.328571,29.1857143 101.271429,29.4428571 L101.185714,29.4428571 Z"></path>
                                </g>
                                <path d="M35.4857143,67.3714286 L35.4857143,67.3714286 C36.9219481,67.9908705 38.4647674,68.3256331 40.0285714,68.3571429 C41.4237093,68.3334108 42.8030527,68.0575421 44.1,67.5428571 C48.5359802,65.6598812 52.3212072,62.5154603 54.9857143,58.5 C58.361768,53.751788 60.2015191,48.0829614 60.2571429,42.2571429 C60.2571429,30.2142857 58.4571429,20.0571429 47.4,17.0571429 C44.9511959,16.4246921 42.4289131,16.1220182 39.9,16.1571429 C22.2857143,16.1571429 19.6714286,27.8571429 19.6714286,42.2571429 C19.7650818,52.9468422 25.8861366,62.6675417 35.4857143,67.3714286 Z" id="Shape"></path>
                            </g>
                        </g>
                    </g>
                </g>
            </g>
        </g>
    </g>
</svg>