<svg viewBox="0 0 150 150" version="1.1" xmlns="http://www.w3.org/2000/svg" xmlns:xlink="http://www.w3.org/1999/xlink">
    <g id="Page-1" stroke="none" stroke-width="1" fill="none" fill-rule="evenodd">
        <g id="Group-13">
            <rect id="Rectangle" fill="#D8D8D8" x="0" y="0" width="150" height="150" opacity="0"></rect>
            <g id="finding-help__sdl-community" transform="translate(15.000000, 26.000000)" fill-rule="nonzero" fill="#43AE5A">
                <g id="Asset-1">
                    <g id="Layer_2">
                        <g id="Layer_2-2">
                            <g id="Group">
                                <g transform="translate(0.000000, 26.666667)" id="Shape">
                                    <g transform="translate(40.000000, 0.000000)">
                                        <path d="M41.3333333,13.7777778 C41.284264,11.8622335 40.9701698,9.96271136 40.4,8.13333333 C39.9473997,6.45351891 38.728201,5.08603924 37.1111111,4.44444444 C35.4388055,3.77029232 33.6937388,3.29300911 31.9111111,3.02222222 C30.591133,2.83465364 29.2949172,2.50687492 28.0444444,2.04444444 L27.7333333,2.04444444 L27.3333333,1.64444444 L26.1333333,0 L26.1333333,0 C25.1695087,0.718098424 24.0861069,1.25979934 22.9333333,1.6 L22.9333333,1.6 L21.0666667,2.35555556 L18.9333333,1.55555556 L18.9333333,1.55555556 C17.7832705,1.22982695 16.6999071,0.703191979 15.7333333,0 L15.7333333,0 L14.4888889,1.68888889 L14.0888889,2.08888889 L13.8666667,2.08888889 C12.6161939,2.55131937 11.3199781,2.87909809 10,3.06666667 C8.23428686,3.3264793 6.50437079,3.78878445 4.84444444,4.44444444 C3.2781292,5.03990515 2.0678115,6.31564543 1.55555556,7.91111111 C0.96475649,9.81179901 0.65042671,11.7875862 0.622222222,13.7777778 L0.622222222,14.6666667 C1.37777778,14.6666667 3.68888889,15.2444444 6.84444444,15.6444444 C10.8092373,16.1920038 14.7998011,16.5332044 18.8,16.6666667 L23.2444444,16.6666667 C27.6888889,16.6666667 32.1333333,16.0888889 34.9777778,15.6888889 C37.8222222,15.2888889 40.6666667,14.8444444 41.4666667,14.7111111 L41.3333333,13.7777778 Z"></path>
                                        <polygon points="21.0222222 4.84444444 18.7555556 15.2444444 23.2 15.2444444"></polygon>
                                    </g>
                                    <g transform="translate(75.555556, 53.333333)">
                                        <path d="M44.0444444,14.7111111 C44.0120013,12.7358424 43.6977194,10.7753219 43.1111111,8.88888889 C42.5988552,7.29342321 41.3885375,6.01768293 39.8222222,5.42222222 C38.1499167,4.7480701 36.4048499,4.27078688 34.6222222,4 C33.3022442,3.81243142 32.0060283,3.4846527 30.7555556,3.02222222 L30.4444444,3.02222222 L30.0444444,2.62222222 L28.8,1.02222222 L28.8,1.02222222 C27.8361754,1.74032065 26.7527735,2.28202156 25.6,2.62222222 L25.6,2.62222222 L23.7333333,3.37777778 L21.6,2.57777778 L21.6,2.57777778 C20.4624607,2.23361666 19.3943318,1.69203022 18.4444444,0.977777778 L18.4444444,0.977777778 L17.2,2.66666667 L16.8,3.06666667 L16.5777778,3.06666667 C15.327305,3.52909715 14.0310892,3.85687587 12.7111111,4.04444444 C10.9284834,4.31523133 9.18341667,4.79251455 7.51111111,5.46666667 C6.03938111,6.10650187 4.91964633,7.35606097 4.44444444,8.88888889 C3.87427465,10.7182669 3.56018043,12.6177891 3.51111111,14.5333333 L3.51111111,15.4222222 C4.26666667,15.4222222 6.57777778,16 9.73333333,16.4 C13.6981262,16.9475593 17.6886899,17.2887599 21.6888889,17.4222222 L26.1333333,17.4222222 C30.5777778,17.4222222 35.0222222,16.8444444 37.8666667,16.4444444 C40.7111111,16.0444444 43.5555556,15.6 44.3555556,15.4666667 L44.0444444,14.7111111 Z"></path>
                                        <polygon points="23.7333333 5.77777778 21.4666667 16.2222222 25.9111111 16.1777778"></polygon>
                                    </g>
                                    <g transform="translate(0.000000, 53.333333)">
                                        <path d="M40.8,14.7111111 C40.8108339,12.7422495 40.5414676,10.7818618 40,8.88888889 C39.4877441,7.29342321 38.2774264,6.01768293 36.7111111,5.42222222 C35.0388055,4.7480701 33.2937388,4.27078688 31.5111111,4 C30.191133,3.81243142 28.8949172,3.4846527 27.6444444,3.02222222 L27.3333333,3.02222222 L26.6666667,2.62222222 L25.4222222,1.02222222 L25.4222222,1.02222222 C24.4616717,1.75604827 23.3780784,2.31289487 22.2222222,2.66666667 L22.2222222,2.66666667 L20.3555556,3.42222222 L18.2222222,2.62222222 L18.2222222,2.62222222 C17.0846829,2.27806111 16.0165541,1.73647467 15.0666667,1.02222222 L15.0666667,1.02222222 L13.8222222,2.71111111 L13.3333333,3.06666667 L13.1111111,3.06666667 C11.8606384,3.52909715 10.5644225,3.85687587 9.24444444,4.04444444 C7.59273933,4.38725311 5.98325918,4.9088439 4.44444444,5.6 C2.86586997,6.12373902 1.60824801,7.33236272 1.02222222,8.88888889 C0.405445219,10.770919 0.0612141572,12.7315394 0,14.7111111 L0,15.6 C0.755555556,15.6 3.06666667,16.1777778 6.22222222,16.5777778 C10.1986085,17.1863756 14.2040619,17.5869209 18.2222222,17.7777778 L22.6666667,17.7777778 C27.1111111,17.7777778 31.5555556,17.2 34.4,16.8 C37.2444444,16.4 40.0888889,15.9555556 40.8888889,15.8222222 L40.8,14.7111111 Z"></path>
                                        <polygon points="20.4888889 5.77777778 18.1777778 16.2222222 22.6222222 16.1777778"></polygon>
                                    </g>
                                    <polygon points="60.9777778 43.8666667 48.4444444 51.0666667 45.3777778 45.7777778 57.9111111 38.5777778 57.9111111 24.0888889 64.0444444 24.0888889 64.0444444 38.5777778 76.5333333 45.7777778 73.4666667 51.0666667 60.9777778 43.8666667"></polygon>
                                </g>
                                <path d="M58.6666667,26.1777778 L58.6666667,26.1777778 C59.3984185,26.4878817 60.1831321,26.6538788 60.9777778,26.6666667 C61.6925314,26.6607254 62.4002815,26.5251988 63.0666667,26.2666667 C65.3076564,25.3507203 67.2366914,23.8074923 68.6222222,21.8222222 C70.3111019,19.3186976 71.1807856,16.352455 71.1111111,13.3333333 C71.1111111,7.15555556 70.3555556,2 64.8,0.444444444 C63.5512568,0.127537975 62.2659194,-0.0219198717 60.9777778,0 C52.0888889,0 50.6666667,5.95555556 50.6666667,13.3333333 C50.6979015,18.7808274 53.7912728,23.7474069 58.6666667,26.1777778 L58.6666667,26.1777778 Z" id="Shape"></path>
                                <path d="M96.9333333,80.4444444 L96.9333333,80.4444444 C97.6650852,80.7545483 98.4497988,80.9205454 99.2444444,80.9333333 C99.959198,80.9273921 100.666948,80.7918654 101.333333,80.5333333 C103.574323,79.6173869 105.503358,78.074159 106.888889,76.0888889 C108.621552,73.6611051 109.567816,70.7602634 109.6,67.7777778 C109.6,61.6 108.666667,56.4444444 103.111111,54.8888889 C101.862368,54.5719824 100.57703,54.4225246 99.2888889,54.4444444 C90.4,54.4444444 88.9777778,60.4 88.9777778,67.7777778 C89.0667826,73.1511973 92.1316066,78.030945 96.9333333,80.4444444 Z" id="Shape"></path>
                                <path d="M18.1333333,80.4444444 L18.1333333,80.4444444 C18.8650852,80.7545483 19.6497988,80.9205454 20.4444444,80.9333333 C21.159198,80.9273921 21.8669482,80.7918654 22.5333333,80.5333333 C24.7743231,79.6173869 26.703358,78.074159 28.0888889,76.0888889 C29.8215523,73.6611051 30.7678161,70.7602634 30.8,67.7777778 C30.8,61.6 29.8666667,56.4444444 24.3111111,54.8888889 C23.0623679,54.5719824 21.7770305,54.4225246 20.4888889,54.4444444 C11.6,54.4444444 10.1777778,60.4 10.1777778,67.7777778 C10.2667826,73.1511973 13.3316066,78.030945 18.1333333,80.4444444 L18.1333333,80.4444444 Z" id="Shape"></path>
                            </g>
                        </g>
                    </g>
                </g>
            </g>
        </g>
    </g>
</svg>