<svg viewBox="0 0 150 150" version="1.1" xmlns="http://www.w3.org/2000/svg" xmlns:xlink="http://www.w3.org/1999/xlink">
    <g id="Page-1" stroke="none" stroke-width="1" fill="none" fill-rule="evenodd">
        <g id="Group-10">
            <rect id="Rectangle" fill="#D8D8D8" x="0" y="0" width="150" height="150" opacity="0"></rect>
            <g id="get-inspired__sdl-trados-app" transform="translate(39.000000, 15.000000)" fill-rule="nonzero" fill="#43AE5A">
                <g id="Asset-1">
                    <g id="Layer_2">
                        <g id="Layer_2-2">
                            <path d="M7.27272727,119.745455 L63.6363636,119.745455 C65.5006465,119.824062 67.3188236,119.15315 68.6851981,117.882422 C70.0515726,116.611694 70.8524368,114.846897 70.9090909,112.981818 L70.9090909,10.4 C70.8524368,8.53492092 70.0515726,6.77012431 68.6851981,5.49939602 C67.3188236,4.22866773 65.5006465,3.55775589 63.6363636,3.63636364 L7.27272727,3.63636364 C5.40844444,3.55775589 3.59026735,4.22866773 2.22389285,5.49939602 C0.857518343,6.77012431 0.0566540875,8.53492092 0,10.4 L0,112.981818 C0.0566540875,114.846897 0.857518343,116.611694 2.22389285,117.882422 C3.59026735,119.15315 5.40844444,119.824062 7.27272727,119.745455 L7.27272727,119.745455 Z M35.4545455,116.909091 C33.7331512,116.968429 32.1485957,115.975209 31.4517155,114.400066 C30.7548353,112.824922 31.0856352,110.984305 32.2873667,109.750384 C33.4890982,108.516463 35.3203309,108.137137 36.9133408,108.792147 C38.5063507,109.447157 39.5410987,111.004912 39.5272727,112.727273 C39.5272727,115.05691 37.6387284,116.945455 35.3090909,116.945455 L35.4545455,116.909091 Z M3.63636364,11.3818182 L66.9818182,11.3818182 L66.9818182,103.6 L3.63636364,103.6 L3.63636364,11.3818182 Z" id="Shape"></path>
                        </g>
                    </g>
                </g>
            </g>
        </g>
    </g>
</svg>