<svg viewBox="0 0 150 150" version="1.1" xmlns="http://www.w3.org/2000/svg" xmlns:xlink="http://www.w3.org/1999/xlink">
    <g id="Page-1" stroke="none" stroke-width="1" fill="none" fill-rule="evenodd">
        <g id="Group-9">
            <rect id="Rectangle" fill="#D8D8D8" x="0" y="0" width="150" height="150" opacity="0"></rect>
            <g id="get-inspired__benefits" transform="translate(15.000000, 21.000000)" fill-rule="nonzero" fill="#43AE5A">
                <g id="Asset-1">
                    <g id="Layer_2">
                        <g id="Layer_2-2">
                            <path d="M5.27142857,80.0142857 C5.55446898,80.3566403 5.73300265,80.7732188 5.78571429,81.2142857 C6.55714286,85.5 7.2,89.7857143 8.14285714,94.0714286 C8.97303978,97.8460403 10.5783917,101.407003 12.8571429,104.528571 C13.1112506,104.880464 13.4984975,105.112813 13.9285714,105.171429 L28.1571429,105.171429 L28.4571429,105.171429 L27.9857143,95.2714286 C31.8,95.8285714 35.3571429,96.4714286 38.9142857,96.7714286 C43.2,97.1142857 47.8285714,97.2428571 52.2428571,97.3285714 C54.3857143,97.3285714 56.5285714,97.3285714 58.6714286,96.9857143 C59.3237425,96.8644743 59.9756001,97.199212 60.2571429,97.8 C61.6714286,100.071429 63.1714286,102.342857 64.5428571,104.528571 C64.8190502,104.905236 65.236977,105.152897 65.7,105.214286 L79.6714286,105.214286 L80.1428571,105.214286 C80.1428571,102.385714 79.7142857,99.6 79.7142857,96.6428571 C79.7142857,92.9571429 79.7142857,92.9571429 83.2714286,91.9714286 C93.0170022,89.3797595 102.150827,84.878401 110.142857,78.7285714 C111.967195,77.249938 113.712465,75.676334 115.371429,74.0142857 C117.10249,72.0250634 118.007154,69.4490719 117.9,66.8142857 L117.9,60.2142857 L111.257143,60.2142857 C109.897509,60.4257208 108.575246,59.6573786 108.085714,58.3714286 C104.884449,52.2257657 99.8113021,47.2576843 93.6,44.1857143 C93.2568605,44.0866527 92.9680562,43.8536077 92.7987302,43.5391453 C92.6294043,43.2246828 92.5938186,42.8552893 92.7,42.5142857 C92.9571429,41.0571429 93,39.5571429 93.2571429,38.2285714 C93.5798655,36.0578422 94.5856216,34.0463299 96.1285714,32.4857143 C93.0204696,32.1566253 89.8955641,32.9302669 87.3,34.6714286 C84.7714286,36.3428571 82.4571429,38.3571429 79.9714286,40.3285714 C76.1522206,36.7730785 71.5823412,34.1219626 66.6,32.5714286 L63.1714286,38.5714286 C60.6428571,37.9714286 58.2,37.3285714 55.6714286,36.8142857 C50.6143591,35.8148413 45.4208449,35.7132922 40.3285714,36.5142857 C37.3714286,36.9857143 34.5,37.7571429 31.7571429,38.5285714 C31.4793458,38.7316857 31.1277159,38.8057602 30.7915872,38.7319759 C30.4554585,38.6581915 30.1671833,38.44365 30,38.1428571 C28.8428571,36.5142857 27.6,34.9285714 26.4428571,33.3428571 C26.3333498,33.122824 26.1386204,32.9571473 25.9038874,32.8842992 C25.6691545,32.811451 25.4148404,32.8377694 25.2,32.9571429 C18.6805575,35.1026581 12.7216443,38.6750778 7.75714286,43.4142857 C6.77142857,44.4 5.82857143,44.2285714 5.18571429,42.9428571 C4.61913125,41.9665688 4.59841718,40.766531 5.13096894,39.7712703 C5.66352071,38.7760097 6.67340579,38.1274328 7.8,38.0571429 C6.877974,37.3513632 5.69401014,37.0827523 4.55768498,37.3215453 C3.42135983,37.5603383 2.44566292,38.2827908 1.88571429,39.3 C0.773690493,40.7684705 0.397811046,42.6663559 0.86617866,44.4478256 C1.33454627,46.2292953 2.59525078,47.6969051 4.28571429,48.4285714 C2.46345486,51.3169739 1.22577963,54.5349295 0.642857143,57.9 C0.428571429,59.0571429 0.257142857,60.2142857 0.0428571429,61.4142857 L0.0428571429,67.4142857 C0.385714286,69.1285714 0.685714286,70.8857143 1.11428571,72.5571429 C1.77961258,75.3810627 3.2192461,77.9634981 5.27142857,80.0142857 L5.27142857,80.0142857 Z M94.6285714,53.5714286 C96.6710483,53.5949069 98.3144207,55.2573882 98.3142857,57.3 C98.3376201,58.2883901 97.958218,59.2438138 97.2631786,59.9469351 C96.5681391,60.6500565 95.6171652,61.0404782 94.6285714,61.0285714 C92.5693383,61.0285714 90.9,59.3592331 90.9,57.3 C90.9,55.2407669 92.5693383,53.5714286 94.6285714,53.5714286 L94.6285714,53.5714286 Z" id="Shape"></path>
                            <path d="M25.9285714,20.5714286 C25.9325177,26.4149334 28.426587,31.9798256 32.7857143,35.8714286 C41.8077836,33.0837629 51.4502105,33.0092464 60.5142857,35.6571429 C67.394931,29.2539672 69.0605543,19.0015072 64.5608084,10.7494636 C60.0610625,2.49741989 50.5404508,-1.65531285 41.4311065,0.660671634 C32.3217621,2.97665611 25.9406329,11.1722907 25.9285714,20.5714286 Z M47.6142857,6.21428571 L48.0428571,6.21428571 C48.0557874,6.29951236 48.0557874,6.38620193 48.0428571,6.47142857 L47.7857143,9 L48.5571429,9 L49.3285714,9.21428571 L49.9714286,9.47142857 L50.4,9.72857143 L50.4,9.94285714 C50.4146617,10.0423197 50.4146617,10.1433946 50.4,10.2428571 C50.408394,10.3712916 50.408394,10.500137 50.4,10.6285714 L50.4,11.1857143 L50.4,11.8714286 C50.4199379,12.0135901 50.4199379,12.1578385 50.4,12.3 L50.4,12.3 L50.4,12.3 L49.8857143,12.3 L49.0714286,11.9142857 L47.9571429,11.5285714 C47.4878198,11.4655608 47.0121802,11.4655608 46.5428571,11.5285714 C46.1445518,11.4764999 45.7411625,11.4764999 45.3428571,11.5285714 C45.0479977,11.6003597 44.7709068,11.7316132 44.5285714,11.9142857 C44.3279561,12.0583555 44.1660202,12.2497343 44.0571429,12.4714286 C44.0074794,12.7117467 44.0074794,12.9596819 44.0571429,13.2 C44.0441985,13.5860299 44.1653502,13.9646288 44.4,14.2714286 C44.6474118,14.5728827 44.9536372,14.8207795 45.3,15 L46.5428571,15.5571429 L48,16.1142857 L49.4571429,16.7571429 C49.9134362,16.9943863 50.332231,17.2976516 50.7,17.6571429 C51.0809738,18.039384 51.3863255,18.4901413 51.6,18.9857143 C51.8387782,19.5701868 51.9554562,20.1973311 51.9428571,20.8285714 C51.9503614,21.5510261 51.8042789,22.2668305 51.5142857,22.9285714 C51.2463834,23.5337968 50.8517962,24.0745274 50.3571429,24.5142857 C49.8279028,24.9787607 49.2177548,25.3419441 48.5571429,25.5857143 C47.7996047,25.8674158 47.0060314,26.040559 46.2,26.1 L45.9,28.9714286 L45.9,28.9714286 L45.5571429,28.9714286 L44.1428571,28.9714286 L43.7142857,28.9714286 C43.6904574,28.8873703 43.6904574,28.798344 43.7142857,28.7142857 L44.0142857,25.9714286 L42.9428571,25.9714286 L41.7857143,26.1428571 L41.0571429,25.7142857 L40.5857143,25.4142857 C40.4696433,25.2815295 40.3951297,25.1175997 40.3714286,24.9428571 C40.3398413,24.6436886 40.3398413,24.3420257 40.3714286,24.0428571 L40.3714286,23.2714286 C40.3485638,23.1151174 40.3485638,22.9563111 40.3714286,22.8 C40.3532833,22.7297238 40.3532833,22.6559905 40.3714286,22.5857143 L40.5857143,22.5857143 C40.7549725,22.5471368 40.9307418,22.5471368 41.1,22.5857143 L41.9571429,23.0142857 L43.2428571,23.4428571 C43.8260854,23.5191743 44.4167717,23.5191743 45,23.4428571 C45.8157943,23.4960387 46.627091,23.2857026 47.3142857,22.8428571 C47.8111062,22.4880928 48.0999951,21.910315 48.0857143,21.3 C48.0986586,20.9139701 47.977507,20.5353712 47.7428571,20.2285714 C47.5510304,20.1360479 47.3498964,20.0642143 47.1428571,20.0142857 C46.7456095,19.7926866 46.3297387,19.6062618 45.9,19.4571429 L44.4857143,18.9428571 L42.8571429,18.2571429 C42.4484096,17.9390196 42.0875704,17.5637469 41.7857143,17.1428571 C41.4047405,16.760616 41.0993888,16.3098587 40.8857143,15.8142857 C40.6491323,15.2142063 40.5326443,14.5735226 40.5428571,13.9285714 C40.5360348,13.2978191 40.6525018,12.671809 40.8857143,12.0857143 C41.1099882,11.537063 41.4456299,11.0408971 41.8714286,10.6285714 C42.3183626,10.2048907 42.8420043,9.87034193 43.4142857,9.64285714 C44.0866731,9.37369886 44.7936144,9.20057035 45.5142857,9.12857143 L45.7714286,6.42857143 L45.7714286,6.42857143 L46.1142857,6.42857143 L47.3571429,6.42857143 L47.6142857,6.21428571 Z" id="Shape"></path>
                        </g>
                    </g>
                </g>
            </g>
        </g>
    </g>
</svg>