<svg viewBox="0 0 150 150" version="1.1" xmlns="http://www.w3.org/2000/svg" xmlns:xlink="http://www.w3.org/1999/xlink">
    <g id="Page-1" stroke="none" stroke-width="1" fill="none" fill-rule="evenodd">
        <g id="Group-11">
            <rect id="Rectangle" fill="#D8D8D8" x="0" y="0" width="150" height="150" opacity="0"></rect>
            <g id="get-inspired__getting-started" transform="translate(15.000000, 23.000000)" fill-rule="nonzero" fill="#43AE5A">
                <g id="Asset-1">
                    <g id="Layer_2">
                        <g id="Layer_2-2">
                            <g id="Group">
                                <path d="M63.8322581,34.4516129 C62.5048589,35.2368634 61.0883606,35.8606425 59.6129032,36.3096774 C59.9612903,38.8258065 60.3483871,41.8451613 60.6193548,44.4 C55.108389,53.8003728 50.8281799,63.8699226 47.883871,74.3612903 L45.5612903,72.8903226 L45.5612903,73.4322581 C45.275635,74.486333 44.8595146,75.5006266 44.3225806,76.4516129 L46.9935484,78.3096774 C45.3532894,85.1840911 44.2275917,92.1711799 43.6258065,99.2129032 C43.6030605,100.188924 44.3547199,101.008917 45.3290323,101.070968 L59.6129032,101.070968 C60.0919437,101.071081 60.5508244,100.878173 60.8858955,100.535818 C61.2209666,100.193463 61.4039623,99.7305402 61.3935484,99.2516129 L61.3935484,99.2516129 C60.8886283,94.4162838 60.6302292,89.5583823 60.6193548,84.6967742 C60.7815424,80.5773162 62.0229653,76.5727263 64.2193548,73.083871 L64.2193548,73.083871 C68.4994496,66.9434904 74.8026264,62.5038615 82.0258065,60.5419355 C81.7787755,59.1073308 81.7787755,57.6410562 82.0258065,56.2064516 C79.8285458,56.4232309 77.6446833,56.7592097 75.483871,57.2129032 C71.393065,58.0025987 67.4661996,59.4817179 63.8709677,61.5870968 C67.5893027,49.4109264 73.3771403,37.9661977 80.9806452,27.7548387 C79.6978575,27.014869 78.5031267,26.131807 77.4193548,25.1225806 C72.8984834,29.5668632 68.6702746,34.2993539 64.7612903,39.2903226 C64.5771416,37.6558315 64.2665333,36.0380797 63.8322581,34.4516129 L63.8322581,34.4516129 Z" id="Shape"></path>
                                <path d="M29.4580645,51.4451613 L29.4580645,51.4451613 C26.1733217,51.5976604 22.962172,52.4698246 20.0516129,54 C15.3715411,56.4987691 10.4064669,58.4224104 5.26451613,59.7290323 C4.28109298,59.8145473 3.55319467,60.681093 3.63870972,61.6645161 C3.72422478,62.6479393 4.5907704,63.3758376 5.57419355,63.2903226 C10.5488112,63.7033481 15.1822907,65.9855096 18.5419355,69.6774194 C21.5464977,73.103056 24.7384826,76.359656 28.1032258,79.4322581 L28.4129032,79.6258065 C32.2138434,81.5451879 36.8205665,80.7774007 39.7935484,77.7290323 C42.6469042,74.1857059 44.0323945,69.6828625 43.6645161,65.1483871 C43.9058373,59.4522375 40.4522366,54.2483957 35.1096774,52.2580645 C33.289269,51.6526084 31.3753179,51.377314 29.4580645,51.4451613 Z" id="Shape"></path>
                                <path d="M50.3225806,5.26451613 L46.683871,5.26451613 C44.7446282,5.233532 42.8053484,5.32403172 40.8774194,5.53548387 C40.3470065,5.56832163 39.8574662,5.8314286 39.5374196,6.25567648 C39.217373,6.67992435 39.0988178,7.2228973 39.2129032,7.74193548 C40.3741935,11.6129032 40.6064516,16.8387097 41.5741935,21.716129 C42.0790993,26.7770251 44.9507503,31.2998753 49.316129,33.9096774 C52.2647725,35.1354895 55.5803888,35.1354895 58.5290323,33.9096774 L58.5290323,33.9096774 C63.8291951,32.5931038 67.7881633,28.1737905 68.516129,22.7612903 C69.1646708,18.4298022 67.8282108,14.0365453 64.8774194,10.8 C60.9071206,7.16969497 55.7018781,5.19004157 50.3225806,5.26451613 L50.3225806,5.26451613 Z" id="Shape"></path>
                                <path d="M96.1935484,72.6580645 C98.6620339,72.9315567 101.146985,72.3137512 103.2,70.916129 C105.725156,69.5271424 108.099188,67.8795902 110.283871,66 C112.242687,64.4284092 113.98663,62.6063795 115.470968,60.5806452 C116.105501,59.7973126 116.483882,58.8378464 116.554839,57.8322581 C116.576526,57.1522522 116.341614,56.4889712 115.896774,55.9741935 C115.454643,55.5096716 114.867657,55.2093529 114.232258,55.1225806 C111.186401,53.972124 108.339121,52.3525705 105.793548,50.3225806 C103.010668,47.9667446 99.6381013,46.4142931 96.0387097,45.8322581 C95.5234724,45.7893518 95.0055599,45.7893518 94.4903226,45.8322581 C91.0353839,46.3251269 88.0414575,48.4801754 86.4774194,51.6 C83.4994059,56.1836693 83.9592797,62.1937451 87.6,66.2709677 C89.5604241,69.4039633 92.6283698,71.6841932 96.1935484,72.6580645 L96.1935484,72.6580645 Z" id="Shape"></path>
                                <path d="M96.4645161,30.9677419 C99.6133485,30.7234501 102.424771,28.9025806 103.935484,26.1290323 C105.919412,23.2462004 107.532119,20.1248328 108.735484,16.8387097 C110.347066,12.5525607 111.640886,8.15357295 112.606452,3.67741935 C112.725704,3.14272069 112.59219,2.58289175 112.244457,2.15956487 C111.896724,1.73623799 111.373484,1.49654057 110.825806,1.50967742 C105.058065,1.50967742 98.8645161,0.425806452 91.4709677,0.193548387 C84.0774194,-0.0387096774 79.8580645,0.890322581 76.4903226,4.06451613 L76.4903226,4.06451613 C73.5201474,6.70972573 72.4886898,10.9125306 73.8967742,14.6322581 C78.0321137,23.6599218 86.596823,29.8594198 96.4645161,30.9677419 L96.4645161,30.9677419 Z" id="Shape"></path>
                            </g>
                        </g>
                    </g>
                </g>
            </g>
        </g>
    </g>
</svg>