<svg width="150px" height="150px" viewBox="0 0 150 150" version="1.1" xmlns="http://www.w3.org/2000/svg" xmlns:xlink="http://www.w3.org/1999/xlink">
    <g id="Page-1" stroke="none" stroke-width="1" fill="none" fill-rule="evenodd">
        <g id="Group-12">
            <rect id="Rectangle" fill="#D8D8D8" x="0" y="0" width="150" height="150" opacity="0"></rect>
            <g id="get-inspired__product-webinars-" transform="translate(15.000000, 26.000000)" fill-rule="nonzero" fill="#43AE5A">
                <g id="Asset-1">
                    <g id="Layer_2">
                        <g id="Layer_2-2">
                            <path d="M20,94.4444444 L36.8444444,76.6666667 L120,76.6666667 L120,0 L0,0 L0,76.6666667 L20,76.6666667 L20,94.4444444 Z M60,6.75555556 C61.7681036,6.72757824 63.5319735,6.93685094 65.2444444,7.37777778 C72.8444444,9.46666667 74.1333333,16.5333333 74.1333333,24.9333333 C74.0835307,28.9844056 72.7963726,32.9234193 70.4444444,36.2222222 C68.586679,39.0273644 65.9431564,41.2225703 62.8444444,42.5333333 C61.9391714,42.8967993 60.9753376,43.0925781 60,43.1111111 C58.9149605,43.0948018 57.84336,42.8684073 56.8444444,42.4444444 L56.8444444,42.4444444 C50.200946,39.146367 45.9746532,32.3946065 45.9111111,24.9777778 C45.9111111,14.8888889 47.7333333,6.75555556 60,6.75555556 L60,6.75555556 Z M32.2222222,61.9111111 C32.2952198,59.3009741 32.7289609,56.713484 33.5111111,54.2222222 C34.1988244,52.0474389 35.8321994,50.2997277 37.9555556,49.4666667 C40.2293727,48.5587738 42.6007475,47.9174586 45.0222222,47.5555556 C46.8126312,47.2979667 48.5706322,46.8510173 50.2666667,46.2222222 L50.5777778,46.2222222 L51.1555556,45.6888889 L52.8444444,43.4222222 L52.8444444,43.4222222 C54.1795221,44.4253612 55.6853311,45.1782657 57.2888889,45.6444444 L57.2888889,45.6444444 L60.2222222,46.7555556 L62.7555556,45.7333333 L62.7555556,45.7333333 C64.358399,45.2653322 65.863893,44.5125851 67.2,43.5111111 L67.2,43.5111111 L68.8888889,45.6888889 L69.4666667,46.2222222 L69.8666667,46.2222222 C71.5627012,46.8510173 73.3207022,47.2979667 75.1111111,47.5555556 C77.5325859,47.9174586 79.9039607,48.5587738 82.1777778,49.4666667 C84.301134,50.2997277 85.9345089,52.0474389 86.6222222,54.2222222 C87.4043725,56.713484 87.8381136,59.3009741 87.9111111,61.9111111 L87.9111111,63.1555556 C86.8888889,63.1555556 83.4666667,63.9111111 79.0222222,64.4888889 C74.5777778,65.0666667 68.9777778,65.6444444 63.0222222,65.8666667 L56.9777778,65.8666667 C51.5205776,65.6897097 46.0762277,65.2298327 40.6666667,64.4888889 C36.2222222,63.9111111 33.1555556,63.3333333 32.1777778,63.1555556 L32.2222222,61.9111111 Z" id="Shape"></path>
                        </g>
                    </g>
                </g>
            </g>
        </g>
    </g>
</svg>