<svg viewBox="0 0 150 150" version="1.1" xmlns="http://www.w3.org/2000/svg" xmlns:xlink="http://www.w3.org/1999/xlink">
    <g id="Page-1" stroke="none" stroke-width="1" fill="none" fill-rule="evenodd">
        <g id="Group-3">
            <rect id="Rectangle" fill="#D8D8D8" x="0" y="0" width="150" height="150" opacity="0"></rect>
            <g id="getting-started__machine-translation" transform="translate(15.000000, 19.000000)" fill-rule="nonzero" fill="#43AE5A">
                <g id="Asset-1">
                    <g id="Layer_2">
                        <g id="Layer_2-2">
                            <g id="Group">
                                <path d="M64.0714286,64.7142857 L71.2285714,64.7142857 L71.2285714,62.4 L86.7,62.4 L86.7,64.7142857 L92.9571429,64.7142857 L92.9571429,61.9285714 L100.328571,61.9285714 L100.328571,69.4285714 L95.5714286,69.4285714 L95.5714286,75.7285714 L101.914286,75.7285714 L109.585714,83.8285714 L109.585714,75.7714286 L118.671429,75.7714286 L118.671429,40.8857143 L64.0714286,40.8857143 L64.0714286,64.7142857 Z M86.3142857,61.2428571 L71.6571429,61.2428571 L71.6571429,58.9285714 L86.3142857,58.9285714 L86.3142857,61.2428571 Z M86.3142857,57.8142857 L71.6571429,57.8142857 L71.6571429,55.5 L86.3142857,55.5 L86.3142857,57.8142857 Z M100.2,60.6857143 L93.0428571,60.6857143 L93.0428571,58.4571429 L100.157143,58.4571429 L100.2,60.6857143 Z M100.2,57.2142857 L93.0428571,57.2142857 L93.0428571,55.0285714 L100.157143,55.0285714 L100.2,57.2142857 Z M113.528571,70.0714286 L110.657143,70.0714286 L110.657143,69.2571429 L105.514286,69.2571429 L105.514286,70.2 L102.857143,70.2 L102.857143,61.1571429 L113.614286,61.1571429 L113.528571,70.0714286 Z M101.871429,47.7857143 L114.257143,47.7857143 L114.257143,50.3142857 L107.871429,50.3142857 C107.871429,50.8714286 107.871429,51.4714286 107.614286,52.0714286 L112.928571,52.0714286 L112.928571,57.0428571 L115.114286,57.0428571 L115.114286,60 L100.928571,60 L100.928571,57.4285714 L103.971429,57.4285714 C103.971429,56.6571429 104.271429,55.8428571 104.4,54.9428571 L102.3,54.9428571 L102.3,52.2857143 L104.785714,52.2857143 C104.785714,51.6857143 104.785714,51.0857143 105.042857,50.5285714 L101.871429,50.5285714 L101.871429,47.7857143 Z M93.3,47.7857143 L100.242857,47.7857143 L100.242857,50.0142857 L93.2142857,50.0142857 L93.3,47.7857143 Z M91.9714286,51.1714286 L101.142857,51.1714286 L101.142857,53.4857143 L91.8857143,53.4857143 L91.9714286,51.1714286 Z M72.2142857,48.1714286 L85.7142857,48.1714286 L85.7142857,50.4857143 L72.1285714,50.4857143 L72.2142857,48.1714286 Z M67.9285714,51.5571429 L90,51.5571429 L90,54.0428571 L67.7571429,54.0428571 L67.9285714,51.5571429 Z" id="Shape"></path>
                                <rect id="Rectangle-path" x="105.471429" y="63.7714286" width="5.14285714" height="3.08571429"></rect>
                                <polygon id="Shape" points="97.8428571 67.0714286 97.8428571 64.2428571 95.4428571 64.2428571 95.4428571 64.7142857 95.5714286 64.7142857 95.5714286 67.0714286"></polygon>
                                <path d="M110.1,54.7714286 L107.142857,54.7714286 C107.142857,55.6285714 106.842857,56.4857143 106.714286,57.2571429 L110.014286,57.2571429 L110.1,54.7714286 Z" id="Shape"></path>
                                <path d="M65.3571429,82.5 C65.3336842,82.2147672 65.3336842,81.9280899 65.3571429,81.6428571 C65.3818193,81.9280386 65.3818193,82.2148185 65.3571429,82.5 L63.6857143,87.3857143 L67.2857143,87.3857143 L65.3571429,82.5 Z" id="Shape"></path>
                                <path d="M38.2285714,102.857143 L47.1428571,102.857143 L47.1428571,111 L54.9857143,102.857143 L92.8285714,102.857143 L92.8285714,68.0142857 L38.2285714,68.0142857 L38.2285714,102.857143 Z M56.4428571,93.7714286 L63,76.1571429 C63.2571429,75.4714286 65.5714286,75.4714286 66.5571429,75.4714286 C66.991302,75.4882756 67.3760739,75.755943 67.5428571,76.1571429 L74.0142857,93.7714286 C74.0305009,93.856376 74.0305009,93.943624 74.0142857,94.0285714 C74.0142857,94.6714286 73.1571429,94.8857143 72.4714286,94.8857143 C70.8428571,94.8857143 69.4285714,94.8857143 69.1714286,94.1142857 L68.2285714,91.4142857 L62.1857143,91.4142857 L61.2857143,94.2857143 C61.0285714,95.0571429 59.4857143,95.0571429 57.9428571,95.0571429 C57.2142857,95.0571429 56.4,95.0571429 56.4,94.2 C56.3811832,94.0698772 56.3959358,93.9371043 56.4428571,93.8142857 L56.4428571,93.7714286 Z" id="Shape"></path>
                                <polygon id="Shape" points="24.6428571 96.9857143 35.1857143 96.9857143 35.1857143 92.1 30.7285714 92.1 30.7285714 64.2428571 24.6428571 64.2428571"></polygon>
                                <path d="M50.9142857,10.8857143 L42.8571429,11.6142857 C40.9788351,10.0524428 38.8675491,8.79434766 36.6,7.88571429 L33.6,0.557142857 C30.169932,-0.0547444268 26.6586395,-0.0547444268 23.2285714,0.557142857 L19.9285714,7.62857143 C17.6265066,8.47180496 15.4715527,9.67221551 13.5428571,11.1857143 L5.61428571,10.2 C3.33121616,12.8349218 1.53208666,15.8528164 0.3,19.1142857 L4.88571429,25.7142857 C4.50247871,28.1277382 4.50247871,30.5865475 4.88571429,33 L0,39.2571429 C1.13582823,42.5606444 2.84800719,45.6367626 5.05714286,48.3428571 L12.8571429,47.6142857 C14.7687328,49.2180502 16.9245334,50.5057432 19.2428571,51.4285714 L22.3285714,58.7571429 C25.7586395,59.3690301 29.269932,59.3690301 32.7,58.7571429 L36.0428571,51.4285714 C38.344922,50.5853379 40.4998758,49.3849273 42.4285714,47.8714286 L50.3142857,48.8571429 C52.610729,46.280337 54.4383171,43.3213847 55.7142857,40.1142857 L51.0857143,33.6 C51.4689499,31.1865475 51.4689499,28.7277382 51.0857143,26.3142857 L55.8857143,19.9714286 C54.7767831,16.6736242 53.0937581,13.5977508 50.9142857,10.8857143 L50.9142857,10.8857143 Z M27.9857143,44.1857143 C19.9381365,44.1857143 13.4142857,37.6618635 13.4142857,29.6142857 C13.4142857,21.5667079 19.9381365,15.0428571 27.9857143,15.0428571 C36.0332921,15.0428571 42.5571429,21.5667079 42.5571429,29.6142857 C42.5571429,37.6618635 36.0332921,44.1857143 27.9857143,44.1857143 L27.9857143,44.1857143 Z" id="Shape"></path>
                                <polygon id="Shape" points="55.9714286 23.7857143 55.9714286 28.7142857 108.6 28.7142857 108.6 37.1571429 114.642857 37.1571429 114.642857 23.7857143"></polygon>
                            </g>
                        </g>
                    </g>
                </g>
            </g>
        </g>
    </g>
</svg>