<svg viewBox="0 0 150 150" version="1.1" xmlns="http://www.w3.org/2000/svg" xmlns:xlink="http://www.w3.org/1999/xlink">
    <defs>
        <polygon id="path-1" points="58.3590325 86.1932 116.716 86.1932 116.716 0.0012 0.00206498074 0.0012 0.00206498074 86.1932"></polygon>
    </defs>
    <g id="Page-1" stroke="none" stroke-width="1" fill="none" fill-rule="evenodd">
        <g id="Group-22">
            <rect id="Rectangle" fill="#D8D8D8" x="0" y="0" opacity="0"></rect>
            <g id="Group-21" transform="translate(17.000000, 32.000000)">
                <mask id="mask-2" fill="white">
                    <use xlink:href="#path-1"></use>
                </mask>
                <g id="Clip-2"></g>
                <path d="M49.948,84.3132 L68.824,84.3132 L68.824,81.1772 L49.948,81.1772 L49.948,84.3132 Z M40.74,86.1932 L75.976,86.1932 L113.804,86.1932 C117.044,86.1932 116.708,83.3612 116.708,83.3612 L116.708,80.2212 L0.012,80.2212 L0.012,83.3612 C0.012,83.3612 -0.324,86.1932 2.912,86.1932 L40.74,86.1932 Z" id="Fill-1" fill="#43AE5A" mask="url(#mask-2)"></path>
                <polygon id="Fill-3" fill="#43AE5A" mask="url(#mask-2)" points="105.3516 73.606 58.4316 73.606 58.2796 73.606 11.3676 73.606 2.7956 78.59 113.9116 78.59"></polygon>
                <path d="M14.6016,6.9204 C14.6016,4.4564 16.7136,2.4604 19.3256,2.4604 L97.0896,2.4604 C99.6976,2.4604 101.8136,4.4564 101.8136,6.9204 L101.8136,61.0884 C101.8136,63.5484 99.6976,65.5484 97.0896,65.5484 L19.3256,65.5484 C16.7136,65.5484 14.6016,63.5484 14.6016,61.0884 L14.6016,6.9204 Z M59.0656,71.1084 C57.7696,71.1084 56.7136,70.0604 56.7136,68.7524 C56.7136,67.4524 57.7696,66.3964 59.0656,66.3964 C60.3696,66.3964 61.4296,67.4524 61.4296,68.7524 C61.4296,70.0604 60.3696,71.1084 59.0656,71.1084 L59.0656,71.1084 Z M16.3216,72.0364 L100.2536,72.0364 C103.0696,72.0364 105.3496,69.7524 105.3496,66.9444 L105.3496,5.1004 C105.3496,2.2844 103.0696,0.0004 100.2536,0.0004 L16.3216,0.0004 C13.5096,0.0004 11.2256,2.2844 11.2256,5.1004 L11.2256,66.9444 C11.2256,69.7524 13.5096,72.0364 16.3216,72.0364 L16.3216,72.0364 Z" id="Fill-4" fill="#43AE5A" mask="url(#mask-2)"></path>
                <path d="M86.2188,38.6628 L75.1428,34.1508 C73.9668,33.6708 72.0428,32.8908 70.8668,32.4108 L59.7948,27.8988 C58.6228,27.4188 58.0508,27.9908 58.5268,29.1628 L63.0388,40.2428 C63.5188,41.4148 64.2988,43.3388 64.7828,44.5148 L69.2948,55.5908 C69.7748,56.7668 71.0588,56.8388 72.1388,55.7468 L77.0188,50.8748 L85.4188,59.2708 C85.8948,59.7508 86.6268,59.7908 87.0468,59.3708 L90.0028,56.4148 C90.4268,55.9948 90.3828,55.2628 89.9028,54.7868 L81.5028,46.3908 L86.3788,41.5108 C87.4668,40.4228 87.3988,39.1388 86.2188,38.6628" id="Fill-5" fill="#43AE5A" mask="url(#mask-2)"></path>
                <path d="M86.2188,38.6628 L75.1428,34.1508 C73.9668,33.6708 72.0428,32.8908 70.8668,32.4108 L59.7948,27.8988 C58.6228,27.4188 58.0508,27.9908 58.5268,29.1628 L63.0388,40.2428 C63.5188,41.4148 64.2988,43.3388 64.7828,44.5148 L69.2948,55.5908 C69.7748,56.7668 71.0588,56.8388 72.1388,55.7468 L77.0188,50.8748 L85.4188,59.2708 C85.8948,59.7508 86.6268,59.7908 87.0468,59.3708 L90.0028,56.4148 C90.4268,55.9948 90.3828,55.2628 89.9028,54.7868 L81.5028,46.3908 L86.3788,41.5108 C87.4668,40.4228 87.3988,39.1388 86.2188,38.6628" id="Fill-6" fill="#43AE5A" mask="url(#mask-2)"></path>
                <path d="M24.2968,40.8776 L43.6648,40.8776 C44.4368,40.8776 45.0648,40.2536 45.0648,39.4776 L45.0648,28.5776 C45.0648,27.8016 44.4368,27.1776 43.6648,27.1776 L24.2968,27.1776 C23.5248,27.1776 22.8928,27.8016 22.8928,28.5776 L22.8928,39.4776 C22.8928,40.2536 23.5248,40.8776 24.2968,40.8776" id="Fill-7" fill="#43AE5A" mask="url(#mask-2)"></path>
                <path d="M24.2968,58.6704 L43.6648,58.6704 C44.4368,58.6704 45.0648,58.0424 45.0648,57.2704 L45.0648,46.3704 C45.0648,45.5944 44.4368,44.9704 43.6648,44.9704 L24.2968,44.9704 C23.5248,44.9704 22.8928,45.5944 22.8928,46.3704 L22.8928,57.2704 C22.8928,58.0424 23.5248,58.6704 24.2968,58.6704" id="Fill-8" fill="#43AE5A" mask="url(#mask-2)"></path>
                <path d="M24.2968,23.0864 L43.6648,23.0864 C44.4368,23.0864 45.0648,22.4584 45.0648,21.6864 L45.0648,10.7864 C45.0648,10.0104 44.4368,9.3864 43.6648,9.3864 L24.2968,9.3864 C23.5248,9.3864 22.8928,10.0104 22.8928,10.7864 L22.8928,21.6864 C22.8928,22.4584 23.5248,23.0864 24.2968,23.0864" id="Fill-9" fill="#43AE5A" mask="url(#mask-2)"></path>
            </g>
        </g>
    </g>
</svg>