<svg viewBox="0 0 150 150" version="1.1" xmlns="http://www.w3.org/2000/svg" xmlns:xlink="http://www.w3.org/1999/xlink">
    <g id="Page-1" stroke="none" stroke-width="1" fill="none" fill-rule="evenodd">
        <g id="Group-2">
            <rect id="Rectangle" fill="#D8D8D8" x="0" y="0" width="150" height="150" opacity="0"></rect>
            <g id="getting-started__first-document" transform="translate(15.000000, 23.000000)" fill-rule="nonzero" fill="#43AE5A">
                <g id="Asset-1">
                    <g id="Layer_2">
                        <g id="Layer_2-2">
                            <g id="Group">
                                <path d="M118.882759,0 L38.1517241,0 L38.1517241,34.1793103 L48.7448276,34.1793103 L48.7448276,30.8689655 L71.6275862,30.8689655 L71.6275862,34.1793103 L80.8965517,34.1793103 L80.8965517,30.0413793 L91.7793103,30.0413793 L91.7793103,40.8 L84.7034483,40.8 L84.7034483,49.862069 L94.0965517,49.862069 L105.434483,61.4482759 L105.434483,49.862069 L118.882759,49.862069 L118.882759,0 Z M81.2275862,10.3034483 L91.4896552,10.3034483 L91.4896552,13.4896552 L81.2275862,13.4896552 L81.2275862,10.3034483 Z M50.0689655,10.8827586 L70.3448276,10.8827586 L70.3448276,14.1931034 L50.0689655,14.1931034 L50.0689655,10.8827586 Z M71.0068966,29.1724138 L49.3655172,29.1724138 L49.3655172,25.862069 L71.0068966,25.862069 L71.0068966,29.1724138 Z M71.0068966,24.2482759 L49.3655172,24.2482759 L49.3655172,20.937931 L71.0068966,20.937931 L71.0068966,24.2482759 Z M76.7172414,19.3241379 L43.6137931,19.3241379 L43.6137931,15.7655172 L76.7172414,15.7655172 L76.7172414,19.3241379 Z M91.4896552,28.3448276 L80.9793103,28.3448276 L80.9793103,25.1586207 L91.4896552,25.1586207 L91.4896552,28.3448276 Z M91.4896552,23.4206897 L80.9793103,23.4206897 L80.9793103,20.2758621 L91.4896552,20.2758621 L91.4896552,23.4206897 Z M79.0758621,18.4965517 L79.0758621,15.1862069 L92.6482759,15.1862069 L92.6482759,18.537931 L79.0758621,18.4965517 Z M111.02069,42.0827586 L106.882759,42.0827586 L106.882759,40.9655172 L99.3103448,40.9655172 L99.3103448,42.2896552 L95.1724138,42.2896552 L95.1724138,28.9655172 L111.103448,28.9655172 L111.02069,42.0827586 Z M113.42069,27.1034483 L92.6068966,27.1034483 L92.6068966,23.462069 L97.0758621,23.462069 C97.2827586,22.3862069 97.4896552,21.1862069 97.737931,19.9034483 L94.6344828,19.9034483 L94.6344828,16.3448276 L98.3172414,16.3448276 C98.3172414,15.5172414 98.5655172,14.6068966 98.6896552,13.8206897 L93.9724138,13.8206897 L93.9724138,10.2206897 L112.262069,10.2206897 L112.262069,13.8206897 L102.910345,13.8206897 C102.910345,14.6482759 102.662069,15.4758621 102.496552,16.3448276 L110.358621,16.3448276 L110.358621,23.462069 L113.586207,23.462069 L113.42069,27.1034483 Z" id="Shape"></path>
                                <rect id="Rectangle-path" x="99.3931034" y="32.7724138" width="7.6137931" height="4.42758621"></rect>
                                <polygon id="Shape" points="88.0551724 37.5724138 88.0551724 33.4758621 84.537931 33.4758621 84.537931 34.1793103 84.7034483 34.1793103 84.7034483 37.5724138"></polygon>
                                <path d="M101.296552,23.462069 L106.17931,23.462069 L106.17931,19.9034483 L102.041379,19.9034483 C101.710345,21.1448276 101.503448,22.3862069 101.296552,23.462069 Z" id="Shape"></path>
                                <path d="M40.0965517,59.5862069 C39.9639022,59.1816753 39.8669793,58.7662914 39.8068966,58.3448276 C39.8443641,58.7577725 39.8443641,59.1732619 39.8068966,59.5862069 L37.2413793,66.5793103 L42.5793103,66.5793103 L40.0965517,59.5862069 Z" id="Shape"></path>
                                <path d="M0,88.8413793 L13.4482759,88.8413793 L13.4482759,100.427586 L24.8275862,88.8413793 L80.6896552,88.8413793 L80.6896552,38.8551724 L0,38.8551724 L0,88.8413793 Z M26.8965517,75.8482759 L36.5793103,50.6482759 C36.9517241,49.6551724 40.3862069,49.6551724 41.8344828,49.6551724 C42.4708602,49.6715833 43.0381283,50.0605671 43.2827586,50.6482759 L52.8413793,75.8482759 C52.8659042,75.9712025 52.8659042,76.097763 52.8413793,76.2206897 C52.8413793,77.1310345 51.5586207,77.4206897 50.5655172,77.4206897 C48.1655172,77.4206897 46.0551724,77.4206897 45.6827586,76.3034483 L44.2758621,72.4551724 L35.3793103,72.4551724 L34.0137931,76.3034483 C33.6413793,77.3793103 31.3655172,77.4206897 29.0896552,77.4206897 C28.0137931,77.4206897 26.8137931,77.1310345 26.8137931,76.2206897 C26.8189738,76.0926129 26.8470005,75.9664925 26.8965517,75.8482759 L26.8965517,75.8482759 Z" id="Shape"></path>
                            </g>
                        </g>
                    </g>
                </g>
            </g>
        </g>
    </g>
</svg>