<svg viewBox="0 0 150 150" version="1.1" xmlns="http://www.w3.org/2000/svg" xmlns:xlink="http://www.w3.org/1999/xlink">
    <g id="Page-1" stroke="none" stroke-width="1" fill="none" fill-rule="evenodd">
        <g id="Group-6">
            <rect id="Rectangle" fill="#D8D8D8" x="0" y="0" width="150" height="150" opacity="0"></rect>
            <g id="more-resources__video-library" transform="translate(15.000000, 21.000000)" fill-rule="nonzero" fill="#43AE5A">
                <g id="Asset-1">
                    <g id="Layer_2">
                        <g id="Layer_2-2">
                            <path d="M75.6827586,39.5586207 L75.1862069,39.5586207 L48.9931034,24.8275862 L48.9931034,24.8275862 C48.7427632,24.5811773 48.447877,24.3845865 48.1241379,24.2482759 L47.7103448,24.2482759 L47.4206897,24.2482759 L47.4206897,24.2482759 L47.1310345,24.2482759 C45.5998726,24.2482759 44.3586207,25.4895278 44.3586207,27.0206897 L44.3586207,57.6 C44.3586207,59.1311619 45.5998726,60.3724138 47.1310345,60.3724138 L48.0413793,60.3724138 L48.0413793,60.3724138 L76.3034483,44.6896552 L76.3034483,44.6896552 L76.6758621,44.4413793 C77.3270969,43.7908005 77.6129531,42.8594085 77.4388074,41.9555097 C77.2646618,41.051611 76.6532264,40.2930917 75.8068966,39.9310345 L75.6827586,39.5586207 Z" id="Shape"></path>
                            <path d="M108.703448,0 L7.86206897,0 C3.51996817,-2.65876992e-16 5.31753984e-16,3.51996817 0,7.86206897 L0,96.2896552 C5.31753984e-16,100.631756 3.51996817,104.151724 7.86206897,104.151724 L108.703448,104.151724 C113.045549,104.151724 116.565517,100.631756 116.565517,96.2896552 L116.565517,7.86206897 C116.565517,3.51996817 113.045549,1.56921179e-14 108.703448,0 Z M13.2,99.062069 L9.84827586,99.062069 L9.84827586,87.8482759 L13.2,87.8482759 L13.2,99.062069 Z M18.7862069,99.062069 L15.4344828,99.062069 L15.4344828,87.8482759 L18.7862069,87.8482759 L18.7862069,99.062069 Z M106.634483,94.9241379 L80.3586207,94.9241379 L80.3586207,98.3586207 L74.4827586,98.3586207 L74.4827586,94.9241379 L26.3172414,94.9241379 L26.3172414,91.0344828 L74.4827586,91.0344828 L74.4827586,87.6 L80.5655172,87.6 L80.5655172,91.0344828 L106.882759,91.0344828 L106.634483,94.9241379 Z M112.593103,78.8689655 C112.593103,79.6481533 112.283572,80.3954275 111.732603,80.9463965 C111.181634,81.4973654 110.43436,81.8068966 109.655172,81.8068966 L6.82758621,81.8068966 C5.2050117,81.8068966 3.88965517,80.49154 3.88965517,78.8689655 L3.88965517,7.57241379 C3.88965517,5.94983929 5.2050117,4.63448276 6.82758621,4.63448276 L109.737931,4.63448276 C111.360506,4.63448276 112.675862,5.94983929 112.675862,7.57241379 L112.593103,78.8689655 Z" id="Shape"></path>
                        </g>
                    </g>
                </g>
            </g>
        </g>
    </g>
</svg>