<svg viewBox="0 0 150 150" version="1.1" xmlns="http://www.w3.org/2000/svg" xmlns:xlink="http://www.w3.org/1999/xlink">
    <g id="Page-1" stroke="none" stroke-width="1" fill="none" fill-rule="evenodd">
        <g id="Group-7">
            <rect id="Rectangle" fill="#D8D8D8" x="0" y="0" width="150" height="150" opacity="0"></rect>
            <g id="more-resources__product-briefs" transform="translate(15.000000, 17.000000)" fill-rule="nonzero" fill="#43AE5A">
                <g id="Asset-1">
                    <g id="Layer_2">
                        <g id="Layer_2-2">
                            <path d="M8.44615385,112.8 L90.6,112.8 C92.8523078,112.802462 95.012308,111.905231 96.6,110.307692 C97.2474046,109.644264 97.8059204,108.899576 98.2615385,108.092308 L98.2615385,107.815385 L107.492308,83.3538462 L113.953846,65.9538462 C115.8,61.0615385 117.230769,57.3230769 117.415385,56.7230769 C118.250777,55.0037987 118.250777,52.9962013 117.415385,51.2769231 C116.462806,49.6269733 114.705173,48.6075464 112.8,48.6 L99.6923077,48.6 L99.6923077,48.1846154 L99.6923077,48.1846154 L99.6923077,3.09230769 C99.6923077,1.38447331 98.3078344,1.04574695e-16 96.6,0 L38.6307692,0 L27.6923077,12.5076923 L27.6923077,47.1230769 L27.6923077,47.1230769 L27.6923077,48.7846154 C26.5639558,48.7463632 25.446659,49.0177068 24.4615385,49.5692308 C23.5804274,50.1314331 22.8763833,50.9314833 22.4307692,51.8769231 C21.8888626,53.0128113 21.4262187,54.1848423 21.0461538,55.3846154 L3.83076923,104.769231 C3.82420045,104.646241 3.82420045,104.522989 3.83076923,104.4 L3.83076923,36.9230769 C3.83076923,34.3740704 5.89714731,32.3076923 8.44615385,32.3076923 L22.5692308,32.3076923 L22.5692308,28.4307692 L8.44615385,28.4307692 C3.77401605,28.4561617 -6.90016704e-05,32.2508701 9.42835553e-16,36.9230769 L9.42835553e-16,104.353846 C0.0252265318,109.008039 3.7919611,112.774773 8.44615385,112.8 L8.44615385,112.8 Z M32.3076923,48.3692308 L32.3076923,48.3692308 L32.3076923,16.4307692 L35.5384615,12.8307692 L42.5538462,5.26153846 L94.8923077,5.26153846 L94.8923077,48.3692308 L94.8923077,48.3692308 L94.8923077,48.7846154 L32.3076923,48.7846154 L32.3076923,48.3692308 Z" id="Shape"></path>
                            <rect id="Rectangle-path" x="37.0615385" y="19.6153846" width="53.1692308" height="1.98461538"></rect>
                            <polygon id="Shape" points="37.0615385 29.0769231 37.0615385 29.4461538 38.0307692 29.4461538 90.2307692 29.4461538 90.2307692 27.5076923 37.0615385 27.5076923"></polygon>
                            <polygon id="Shape" points="41.3538462 35.3538462 37.0615385 35.3538462 37.0615385 37.2923077 45 37.2923077 52.7076923 37.2923077 90.2307692 37.2923077 90.2307692 35.3538462 49.2461538 35.3538462"></polygon>
                            <rect id="Rectangle-path" x="37.0615385" y="43.2" width="53.1692308" height="1.98461538"></rect>
                        </g>
                    </g>
                </g>
            </g>
        </g>
    </g>
</svg>