<svg viewBox="0 0 150 150" version="1.1" xmlns="http://www.w3.org/2000/svg" xmlns:xlink="http://www.w3.org/1999/xlink">
    <g id="Page-1" stroke="none" stroke-width="1" fill="none" fill-rule="evenodd">
        <g id="Group-8">
            <rect id="Rectangle" fill="#D8D8D8" x="0" y="0" width="150" height="150" opacity="0"></rect>
            <g id="more-resources__ebooks" transform="translate(15.000000, 25.000000)" fill-rule="nonzero" fill="#43AE5A">
                <g id="Asset-1">
                    <g id="Layer_2">
                        <g id="Layer_2-2">
                            <g id="Group">
                                <path d="M106.22069,16.5517241 L105.972414,14.4 C86.8965517,16.5517241 80.6482759,21.3517241 80.4,21.5586207 L81.8068966,23.2551724 C81.8068966,23.2551724 87.8482759,18.4137931 106.22069,16.5517241 Z" id="Shape"></path>
                                <path d="M69.3517241,21.5586207 C69.062069,21.3517241 62.8965517,16.5517241 43.737931,14.2758621 L43.5310345,16.5517241 C61.9034483,18.537931 67.9034483,23.337931 67.9448276,23.3793103 L69.3517241,21.5586207 Z" id="Shape"></path>
                                <g id="Shape">
                                    <path d="M39.3931034,4.13793103 L37.8206897,4.13793103 L37.8206897,57.5586207 L39.4344828,57.5586207 C49.2004003,57.2048172 58.9080853,59.2059628 67.737931,63.3931034 L34.9655172,63.3931034 L34.9655172,10.6344828 L30.8275862,10.6344828 L30.8275862,67.9448276 L67.4896552,67.9448276 C68.9804495,70.4572676 71.6854547,71.9975666 74.6068966,71.9975666 C77.5283384,71.9975666 80.2333436,70.4572676 81.7241379,67.9448276 L118.386207,67.9448276 L118.386207,10.6344828 L114.744828,10.6344828 L114.744828,63.3931034 L81.6413793,63.3931034 C90.471225,59.2059628 100.17891,57.2048172 109.944828,57.5586207 L111.724138,57.5586207 L111.724138,4.13793103 L110.151724,4.13793103 C89.7517241,3.84827586 78.2068966,11.0896552 74.7724138,13.6551724 C71.337931,11.0896552 59.7931034,3.84827586 39.3931034,4.13793103 Z M41.0068966,7.32413793 C52.4324301,6.90506937 63.6943235,10.1372473 73.1586207,16.5517241 L73.1586207,62.7310345 C63.4480328,56.9672281 52.2935265,54.0960553 41.0068966,54.4551724 L41.0068966,7.32413793 Z M108.496552,54.3310345 C97.2099218,53.9719173 86.0554154,56.8430901 76.3448276,62.6068966 L76.3448276,16.5517241 C85.8091248,10.1372473 97.0710182,6.90506937 108.496552,7.32413793 L108.496552,54.3310345 Z"></path>
                                    <path d="M106.22069,26.1931034 L105.972414,24.0413793 C86.8137931,26.1103448 80.6482759,31.1586207 80.4,31.3655172 L81.8068966,33.062069 C81.8068966,33.062069 87.8482759,28.2206897 106.22069,26.1931034 Z"></path>
                                    <path d="M106.22069,36 L105.972414,33.8482759 C86.8137931,35.9172414 80.6482759,40.9655172 80.4,41.1724138 L81.8068966,42.8689655 C81.8068966,42.8689655 87.8482759,37.9862069 106.22069,36 Z"></path>
                                    <path d="M80.4,50.8965517 L81.8068966,52.5931034 C81.8068966,52.5931034 87.8482759,47.7931034 106.22069,45.7655172 L105.972414,43.6137931 C86.8965517,45.5172414 80.6482759,50.6896552 80.4,50.8965517 Z"></path>
                                    <path d="M43.5310345,26.1931034 C62.0689655,28.2206897 67.862069,33.1034483 67.9448276,33.1034483 L69.3517241,31.4068966 C69.1034483,31.2 62.937931,26.1931034 43.7793103,24.0827586 L43.5310345,26.1931034 Z"></path>
                                    <path d="M43.5310345,36 C61.9034483,37.9862069 67.9034483,42.7862069 67.9448276,42.8275862 L69.3517241,41.1310345 C69.1034483,40.9241379 62.937931,35.9172414 43.7793103,33.8068966 L43.5310345,36 Z"></path>
                                    <path d="M43.5310345,45.7655172 C61.9034483,47.7517241 67.9034483,52.5517241 67.9448276,52.5931034 L69.3517241,50.8965517 C69.1034483,50.6896552 62.937931,45.6827586 43.7793103,43.5724138 L43.5310345,45.7655172 Z"></path>
                                    <path d="M98.6482759,93.5172414 L98.6482759,91.0344828 L4.13793103,91.0344828 L4.13793103,93.5586207 C4.06686978,94.1963824 4.29576035,94.8310173 4.75754587,95.2765998 C5.21933139,95.7221823 5.86173375,95.9282686 6.49655172,95.8344828 L96.2896552,95.8344828 C96.9325194,95.9311061 97.583416,95.7199602 98.0471454,95.2643665 C98.5108747,94.8087728 98.7335068,94.1617149 98.6482759,93.5172414 Z M59.8758621,94.3034483 L44.6068966,94.3034483 L44.6068966,91.7793103 L59.8758621,91.7793103 L59.8758621,94.3034483 Z"></path>
                                    <polygon points="96.4137931 89.6275862 89.462069 85.6137931 51.4758621 85.6137931 51.3517241 85.6137931 13.3241379 85.6137931 6.4137931 89.6275862"></polygon>
                                    <path d="M19.7793103,27.9724138 L25.2827586,27.9724138 L25.2827586,25.9862069 L17.337931,25.9862069 C15.0526148,25.9862069 13.2,27.8388217 13.2,30.1241379 L13.2,80.1931034 C13.2,82.4784197 15.0526148,84.3310345 17.337931,84.3310345 L85.3241379,84.3310345 C87.6094541,84.3310345 89.462069,82.4784197 89.462069,80.1931034 L89.462069,72.1655172 L86.6068966,72.1655172 L86.6068966,75.4758621 C86.5393656,77.5165527 84.8412784,79.1223526 82.8,79.0758621 L19.7793103,79.0758621 C17.738032,79.1223526 16.0399447,77.5165527 15.9724138,75.4758621 L15.9724138,31.6137931 C15.9941205,30.6260101 16.4074587,29.6873368 17.1214444,29.004394 C17.83543,28.3214512 18.7915382,27.9502193 19.7793103,27.9724138 L19.7793103,27.9724138 Z M51.9724138,79.737931 C53.0236592,79.737931 53.8758621,80.5901339 53.8758621,81.6413793 C53.8758621,82.6926248 53.0236592,83.5448276 51.9724138,83.5448276 C50.9211683,83.5448276 50.0689655,82.6926248 50.0689655,81.6413793 C50.0914719,80.6063284 50.9371182,79.7790657 51.9724138,79.7793103 L51.9724138,79.737931 Z"></path>
                                </g>
                            </g>
                        </g>
                    </g>
                </g>
            </g>
        </g>
    </g>
</svg>