<svg viewBox="0 0 150 150" version="1.1" xmlns="http://www.w3.org/2000/svg" xmlns:xlink="http://www.w3.org/1999/xlink">
    <g id="Page-1" stroke="none" stroke-width="1" fill="none" fill-rule="evenodd">
        <g id="Group-5">
            <rect id="Rectangle" fill="#D8D8D8" x="0" y="0" width="150" height="150" opacity="0"></rect>
            <g id="more-resources__roi-calculator" transform="translate(15.000000, 22.000000)" fill-rule="nonzero" fill="#43AE5A">
                <g id="Asset-1">
                    <g id="Layer_2">
                        <g id="Layer_2-2">
                            <rect id="Rectangle-path" x="1.584" y="97.008" width="115.776" height="4.032"></rect>
                            <path d="M23.712,93.936 C24.7723867,93.936 25.632,93.0763867 25.632,92.016 L25.632,66.432 L9.216,82.848 L9.216,92.064 C9.216,93.1243867 10.0756133,93.984 11.136,93.984 L23.712,93.936 Z" id="Shape"></path>
                            <path d="M44.736,93.936 C45.7963867,93.936 46.656,93.0763867 46.656,92.016 L46.656,45.408 L30.24,61.776 L30.24,92.016 C30.24,93.0763867 31.0996133,93.936 32.16,93.936 L44.736,93.936 Z" id="Shape"></path>
                            <path d="M65.76,93.936 C66.8203867,93.936 67.68,93.0763867 67.68,92.016 L67.68,58.032 C64.762068,59.6715654 61.1084974,59.1608512 58.752,56.784 L51.312,49.344 L51.312,92.064 C51.312,92.5732157 51.5142851,93.0615752 51.874355,93.421645 C52.2344248,93.7817149 52.7227843,93.984 53.232,93.984 L65.76,93.936 Z" id="Shape"></path>
                            <path d="M86.784,93.936 C87.8443867,93.936 88.704,93.0763867 88.704,92.016 L88.704,37.44 L72.336,53.808 L72.336,92.208 C72.336,93.2683867 73.1956133,94.128 74.256,94.128 L86.784,93.936 Z" id="Shape"></path>
                            <path d="M107.856,93.936 C108.916387,93.936 109.776,93.0763867 109.776,92.016 L109.776,30.48 C106.006649,30.0952145 103.109078,26.9715911 103.008,23.184 L93.408,32.784 L93.408,92.016 C93.408,93.0763867 94.2676133,93.936 95.328,93.936 L107.856,93.936 Z" id="Shape"></path>
                            <path d="M6.336,79.008 L46.992,38.4 L61.392,52.8 C62.0853394,53.4946855 63.0265177,53.8850691 64.008,53.8850691 C64.9894823,53.8850691 65.9306606,53.4946855 66.624,52.8 L106.704,12.72 L106.704,21.648 C106.704,23.6892444 108.358756,25.344 110.4,25.344 C112.441244,25.344 114.096,23.6892444 114.096,21.648 L114.096,3.696 C114.096,1.65475556 112.441244,1.24990173e-16 110.4,0 L92.544,0 C90.5027556,-1.24990173e-16 88.848,1.65475556 88.848,3.696 C88.848,5.73724444 90.5027556,7.392 92.544,7.392 L101.568,7.392 L64.08,44.88 L49.68,30.48 C48.9866606,29.7853145 48.0454823,29.3949309 47.064,29.3949309 C46.0825177,29.3949309 45.1413394,29.7853145 44.448,30.48 L1.248,73.68 C-0.196776906,75.1247769 -0.196776906,77.4672231 1.248,78.912 C2.69277691,80.3567769 5.03522309,80.3567769 6.48,78.912 L6.336,79.008 Z" id="Shape"></path>
                        </g>
                    </g>
                </g>
            </g>
        </g>
    </g>
</svg>