<svg viewBox="0 0 150 150" version="1.1" xmlns="http://www.w3.org/2000/svg" xmlns:xlink="http://www.w3.org/1999/xlink">
    <g id="Page-1" stroke="none" stroke-width="1" fill="none" fill-rule="evenodd">
        <g id="Group-20">
            <rect id="Rectangle" fill="#D8D8D8" x="0" y="0" opacity="0"></rect>
            <path d="M105.674916,15.7365323 C101.384233,15.4738374 97.4146221,15.0360126 93.4450109,15.0360126 C89.842603,14.9076386 86.2361564,15.122657 82.6745215,15.6781556 C74.0787624,16.903081 66.913811,22.8814079 64.1691278,31.1187759 C62.8068433,34.9805269 62.1253922,39.0494813 62.1551339,43.1443629 L62.1551339,55.9580346 C62.1551339,56.8628725 62.1551339,57.7677103 61.9508156,58.8768664 L44,58.8768664 L44,80.2427152 L62.2135105,80.4178452 L62.4178287,135 L84.3674439,135 L84.3674439,131.789285 L84.3674439,84.1831382 C84.3674439,82.9864171 84.3674439,81.7896961 84.5133855,80.3594685 L102.668519,80.3594685 L105.295468,58.8184898 L84.2215023,58.8184898 L84.2215023,52.2219299 L84.2215023,43.4654344 C84.1004089,41.2826062 84.8881184,39.1469973 86.3976258,37.5656085 C87.9071332,35.9842198 90.0038155,35.098085 92.1899132,35.1175755 C93.3244674,35.0027886 94.4647357,34.9540592 95.6049464,34.9716339 L103.86524,34.9716339 C104.552854,34.9115546 105.235524,34.8042779 105.908423,34.6505624 C105.908423,28.287509 106.171118,22.0703973 105.674916,15.7365323 Z" id="Shape" fill="#43AE5A" fill-rule="nonzero"></path>
        </g>
    </g>
</svg>