<svg viewBox="0 0 150 150" version="1.1" xmlns="http://www.w3.org/2000/svg" xmlns:xlink="http://www.w3.org/1999/xlink">
    <g id="Page-1" stroke="none" stroke-width="1" fill="none" fill-rule="evenodd">
        <g id="Group-16">
            <rect id="Rectangle" fill="#D8D8D8" x="0" y="0" opacity="0"></rect>
            <path d="M128.21499,34.3237085 C129.96419,32.2537561 131.206799,29.8045563 131.844181,27.1705198 C130.555556,27.775385 129.714004,28.2487578 128.846154,28.5643397 L118.537147,32.3776204 C117.24604,32.931856 115.745418,32.6042556 114.802761,31.5623673 C107.129388,24.5498146 95.9236159,23.0019558 86.6365531,27.6717548 C77.3494902,32.3415539 71.9090914,42.2595802 72.9618672,52.6011575 C72.9618672,53.4690076 72.9618672,54.3105593 73.1722551,55.4413942 C68.2741437,55.422182 63.4037747,54.7049095 58.7080868,53.3112167 C44.1978819,49.3923034 31.2663188,41.0561785 21.7061144,29.4584883 C20.8848945,31.1679714 20.1648283,32.9242304 19.5496384,34.7181858 C16.7460836,43.6407781 19.1383335,53.3821006 25.7560815,59.9910326 C26.4924392,60.7799873 27.7021696,61.25336 27.938856,63.1205527 L18.2610125,60.3066145 C18.8921762,72.6932023 25.2564103,80.5301516 36.669954,84.9219991 C35.2079514,85.3067606 33.7093832,85.5359534 32.199211,85.6057598 L27.4391847,85.6057598 C28.9219987,90.4194582 31.9197691,94.6255607 35.9861933,97.5978702 C40.1146299,100.608701 44.9905594,102.428078 50.0821828,102.857568 C40.0074511,110.443408 27.5969941,114.267019 15,113.666246 C15.2289578,113.945796 15.4942979,114.193446 15.7889546,114.402604 C18.6028928,115.849021 21.3642341,117.42693 24.2833662,118.662959 C35.8198535,123.639337 48.4731894,125.454736 60.9434583,123.922657 C78.2305877,122.246084 94.1833728,113.897051 105.414201,100.648495 C117.024271,87.2501651 123.329216,70.0659172 123.139382,52.3381727 C123.110276,50.6734281 123.871121,49.0932126 125.190664,48.0778176 C128.241289,45.2638794 131.00263,42.1869564 133.869165,39.1626303 C134.321228,38.5043836 134.7004,37.7989473 135,37.0587512 C131.161028,38.689111 127.102351,39.743658 122.955293,40.1882713 C125.006575,37.9791983 126.768573,36.2434981 128.21499,34.3237085 Z" id="Shape" fill="#43AE5A" fill-rule="nonzero"></path>
        </g>
    </g>
</svg>