<svg viewBox="0 0 150 150" version="1.1" xmlns="http://www.w3.org/2000/svg" xmlns:xlink="http://www.w3.org/1999/xlink">
    <g id="Page-1" stroke="none" stroke-width="1" fill="none" fill-rule="evenodd">
        <g id="Group-19">
            <rect id="Rectangle" fill="#D8D8D8" x="0" y="0" opacity="0"></rect>
            <g id="Group" transform="translate(15.000000, 15.000000)" fill-rule="nonzero" fill="#43AE5A">
                <path d="M69.52,68 C71.5755914,62.4589936 77.2359412,59.1195542 83.08,60 C88.7670027,59.6877897 93.7121972,63.8613936 94.36,69.52 C94.9958283,72.9771742 95.3171416,76.4848438 95.32,80 L95.32,115.44 L95.32,118.72 C103.537767,119.408603 111.802849,119.301438 120,118.4 L120,115.68 L120,76.44 C120,72.44 119.76,68.44 119.4,64.44 C119.062867,59.3792057 117.702064,54.439491 115.4,49.92 C113.107615,45.4663841 109.287848,41.9874137 104.64,40.12 C98.7363149,37.728621 92.2982005,36.9687577 86,37.92 C79.0845705,38.7505329 72.8181966,42.3974757 68.68,48 C68.28,48.56 67.76,49 66.88,49.88 L66.52,40 L43.12,40 L43.12,119.28 L67.76,119.28 L67.76,115.28 L67.76,76.96 C67.9034985,73.9031119 68.4965311,70.8840367 69.52,68 L69.52,68 Z" id="Shape"></path>
                <path d="M2.84,40 C2.2,45.44 2.52,116.8 3.24,119.4 C11.24,119.4 19.24,119.64 27.24,119.4 L27.24,39.76 C18.88,40 10.84,39.6 2.84,40 Z" id="Shape"></path>
                <path d="M15.12,0.28 C9.99681132,0.208546693 5.22466989,2.87570981 2.60119528,7.27679476 C-0.0222793367,11.6778797 -0.0985189081,17.144257 2.40119527,21.6167951 C4.90090945,26.0893331 9.59681131,28.8885471 14.72,28.96 C19.8431887,29.0314533 24.6153301,26.3642902 27.2388047,21.9632052 C29.8622793,17.5621203 29.9385189,12.095743 27.4388047,7.62320494 C24.9390905,3.15066686 20.2431887,0.351452933 15.12,0.28 L15.12,0.28 Z" id="Shape"></path>
            </g>
        </g>
    </g>
</svg>