<svg xmlns="http://www.w3.org/2000/svg" width="791.33" height="153.05" viewBox="0 0 791.33 153.05">
  <defs>
    <style>
      .cls-1 {
        fill: #fff;
      }
    </style>
  </defs>
  <title>Asset 2</title>
  <g id="Layer_2" data-name="Layer 2">
    <g id="Layer_1-2" data-name="Layer 1">
      <g>
        <g>
          <path class="cls-1" d="M169.38,103.6c0,15.86-8.8,20.51-22,20.51H127.77c-.15,0-.19-.1-.19-.28V58.48c0-.11,0-.15.17-.15h20c12.51,0,21.61,6,21.61,18.59ZM150.16,31.78H102a4.12,4.12,0,0,0-4.5,4V147.15c0,3.49,3.05,3.83,6.78,3.83H147c34.79,0,53.21-12.26,53.21-44.69V75.08c0-35.22-24.74-43.3-50.09-43.3M296.73,137.47c-.31,7-1.8,13.51-3.73,13.51H229.67c-10.1,0-11.94-2.25-11.94-4.16V35.21c0-3.45,7.67-4.65,16.3-5.09,8.87-.45,13.71.34,13.71,4.55v88.6a1,1,0,0,0,1,1H292.3c4.13,0,4.85,4,4.43,13.17M35.15,153C16,153,4.82,150.68,1.86,148.62c-1.78-1.23-2.59-2.28-1-13,.8-5.48,3.93-12.75,8.39-11.09,4.8,1.79,44.16,9.21,44.16-6.22,0-16.81-50.67-11-50.67-54.2,0-19.37,8.4-34.22,44.9-34.22,21.62,0,28.84,3.77,30.81,4.6,2.19.93,3.14,3.81,1.7,13.2-1,6.86-4.77,10.93-7.76,10-8.08-2.52-40.15-6.4-40.15,5.81,0,16.82,50.64,11.19,50.64,55.25,0,20.12-8.91,34.29-47.71,34.29"/>
          <path class="cls-1" d="M305.13,43.42,308,40l2.84-3.39a2.46,2.46,0,0,1,3.45-.3l13.48,11.31L341.22,59a2.46,2.46,0,0,1,.3,3.45l-2.84,3.39-2.84,3.39a2.46,2.46,0,0,1-3.45.3L318.91,58.18,305.43,46.87a2.45,2.45,0,0,1-.3-3.45"/>
          <path class="cls-1" d="M288.86,75.54,293,77.2l4.1,1.66a2.46,2.46,0,0,0,3.19-1.35l6.59-16.31,6.59-16.31a2.46,2.46,0,0,0-1.35-3.19L308,40l-4.1-1.66a2.46,2.46,0,0,0-3.19,1.35L294.09,56,287.5,72.35a2.46,2.46,0,0,0,1.35,3.19"/>
          <path class="cls-1" d="M312.27,39,308,40l-4.29,1.07a2.46,2.46,0,0,1-3-1.78l-4.26-17.07L292.2,5.18a2.46,2.46,0,0,1,1.78-3l4.29-1.07L302.57.07a2.46,2.46,0,0,1,3,1.78l4.26,17.07L314,36a2.46,2.46,0,0,1-1.78,3"/>
          <path class="cls-1" d="M344.31,22.55,342,18.79,339.58,15a2.46,2.46,0,0,0-3.38-.78l-14.92,9.32-14.92,9.32a2.46,2.46,0,0,0-.78,3.37L308,40l2.34,3.75a2.46,2.46,0,0,0,3.38.78l14.92-9.32,14.92-9.32a2.46,2.46,0,0,0,.78-3.37"/>
          <path class="cls-1" d="M308.28,35.62,308,40l-.31,4.41a2.46,2.46,0,0,1-2.61,2.27L287.5,45.49,270,44.27a2.46,2.46,0,0,1-2.27-2.61l.31-4.41.31-4.41a2.46,2.46,0,0,1,2.61-2.27l17.55,1.23L306,33a2.46,2.46,0,0,1,2.27,2.61"/>
        </g>
        <g>
          <path class="cls-1" d="M406.47,147.2c-3.43,0-6.71-1.15-6.71-2.13V35.49H364.6c-2.13,0-3.76-.16-3.76-2.45,0-3.11,1-5.4,2-5.4h81.62c2,0,3.76.16,3.76,2.45,0,3.11-1.14,5.4-2,5.4h-37V143C409.25,145.24,409.09,147.2,406.47,147.2Z"/>
          <path class="cls-1" d="M475.17,64.12c-9,0-19.46,2.45-23.06,9V143c0,2.29-.16,4.25-2.78,4.25-3.44,0-6.05-1.15-6.05-2.13V71.15c3.6-10.63,17.66-14.39,30.26-14.39,6.38,0,15.87.82,15.87,3.27,0,3.44-1.8,5.4-2.62,5.4a4.83,4.83,0,0,1-1.64-.33A55.59,55.59,0,0,0,475.17,64.12Z"/>
          <path class="cls-1" d="M556.62,138.7c0,6.71-37.46,8.67-41.22,8.67-15,0-18.65-9.49-18.65-24.53,0-12.92,1.8-24.86,18.48-24.86,11.94,0,23.39,1.47,32.38,5.56,0-31.08-3.6-39.58-22.9-39.58A68.58,68.58,0,0,0,513.6,65.1l-5.72,1c-1,.16-2.13-2-2.62-4.74-.33-2.13,1.15-2.45,2.94-2.78l3.27-.65a96.72,96.72,0,0,1,15.7-1.15c19.63,0,29.44,11.94,29.44,31.4Zm-9-3.6V111.88c-3.27-2.94-14.07-6.71-29.93-6.71-8.83,0-11.78,6.71-11.78,16.19,0,11.12,2.13,18.81,11.94,18.81C533.72,140.17,544.35,137.39,547.62,135.1Z"/>
          <path class="cls-1" d="M636.76,134.12c0,4.42-1.8,6.21-5.4,7.52-11.12,5.07-27.15,5.72-35.66,5.72-18.16,0-18.48-14.56-18.48-30.91V87.34c0-16.19.16-30.58,18.32-30.58,11.29,0,22.41,1.47,32.38,7.85V25.84c0-2.29.16-4.25,2.78-4.25,3.43,0,6.05,1.14,6.05,2.13ZM627.93,73.6c0-2.45-13.41-9.65-30.09-9.65-10.63,0-11.78,9-11.78,21.59V112.2c0,15.7.16,28,11.94,28,16.68,0,29.93-4.74,29.93-6.54Z"/>
          <path class="cls-1" d="M658.84,88c0-20.28,9.49-31.24,30.42-31.24s30.26,11,30.26,31.24v28.13c0,20.28-9.32,31.24-30.26,31.24s-30.42-11-30.42-31.24Zm9,23.39c0,17.5,2.62,28.79,21.43,28.79s21.26-11.29,21.26-28.79V92.74c0-17.5-2.45-28.79-21.26-28.79s-21.43,11.29-21.43,28.79Z"/>
          <path class="cls-1" d="M758.78,139.52c11.94,0,22.9-2.29,22.9-12.27,0-9-13.41-18.32-22.9-24.7s-21.1-12.76-21.1-26c0-16.52,17-20.12,31.08-20.12a76.92,76.92,0,0,1,17.83,2.45c1.8.49,3.27,1,2.94,2.62-.49,2.78-1.64,5.23-2.62,4.91a73,73,0,0,0-19.46-2.29C757,64.12,747,66.57,747,76.38c0,7,6.87,11.94,16.85,18.65,15.21,10.14,27.48,20,27.48,30.91,0,15.7-15.54,21.43-31.24,21.43-8.18,0-16.52-2-22.73-3.6-1.8-.49-3.27-1.14-2.94-2.78.49-2.78,1.64-5.07,2.62-4.91C743.89,137.88,751.09,139.52,758.78,139.52Z"/>
        </g>
      </g>
    </g>
  </g>
</svg>
